<svg width="36" height="33" viewBox="0 0 36 33" fill="none" xmlns="http://www.w3.org/2000/svg">
<g filter="url(#filter0_d_75_280)">
<path d="M27.8995 23.8995C29.8574 21.9415 31.1908 19.447 31.731 16.7313C32.2712 14.0155 31.994 11.2006 30.9343 8.64241C29.8747 6.08431 28.0803 3.89781 25.778 2.35941C23.4757 0.82109 20.7689 0 18 0C15.2311 0 12.5243 0.82109 10.222 2.35941C7.9197 3.89781 6.1253 6.08431 5.0657 8.64241C4.0061 11.2006 3.7288 14.0155 4.269 16.7313C4.8092 19.447 6.1426 21.9415 8.1005 23.8995L18 14L27.8995 23.8995Z" fill="#1BB291"/>
<path d="M11.834 12.5094C12.6252 11.3178 14.3752 11.3178 15.1664 12.5094L21.397 21.8937C22.2797 23.223 21.3266 25 19.7309 25H7.26947C5.67377 25 4.72067 23.223 5.60327 21.8937L11.834 12.5094Z" fill="#022449"/>
<path d="M19.3091 8.67739C20.094 7.43469 21.9062 7.43469 22.6911 8.67739L31.0624 21.9321C31.9035 23.2638 30.9465 25.0001 29.3714 25.0001H12.6287C11.0536 25.0001 10.0966 23.2638 10.9377 21.9321L19.3091 8.67739Z" fill="#011428"/>
<path d="M18.5 8C18.7761 8 19 7.77614 19 7.5C19 7.22386 18.7761 7 18.5 7C18.2239 7 18 7.22386 18 7.5C18 7.77614 18.2239 8 18.5 8Z" fill="#FEF9E2"/>
<path d="M17.8945 8.72151C17.8496 9.13331 17.8131 9.46711 17.4652 9.42911C17.1173 9.39111 17.1537 9.05731 17.1987 8.64551C17.2436 8.23381 17.2801 7.90001 17.628 7.93801C17.976 7.97601 17.9395 8.30981 17.8945 8.72151Z" fill="#FEF9E2"/>
<path d="M18.4521 9.84036C18.3981 10.3354 18.2942 10.3261 18.199 10.3157C18.1039 10.3053 18.0002 10.2942 18.0545 9.79696C18.1088 9.29976 18.1088 9.29986 18.3076 9.32156C18.5064 9.34336 18.5062 9.34536 18.4521 9.84036Z" fill="#FEF9E2"/>
<path d="M18.9249 9.38979C19.2367 9.77799 19.1567 9.84489 19.0821 9.90489C19.0075 9.96479 18.9262 10.0302 18.6131 9.64029C18.2999 9.25029 18.3 9.25039 18.4559 9.12519C18.6118 8.99999 18.6131 9.00159 18.9249 9.38979Z" fill="#FEF9E2"/>
<path d="M18.7726 8.85416C18.7277 9.26586 18.5211 9.58116 18.1942 9.54546C17.8673 9.50976 17.7336 9.15736 17.7785 8.74556C17.8235 8.33386 18 8.01526 18.357 8.05426C18.714 8.09326 18.8176 8.44236 18.7726 8.85416Z" fill="#FEF9E2"/>
<path d="M19.1793 7.68762L19.0801 7.69995L19.3267 9.68469L19.4259 9.67236L19.1793 7.68762Z" fill="#FEF9E2"/>
</g>
<defs>
<filter id="filter0_d_75_280" x="0" y="0" width="36" height="33.0001" filterUnits="userSpaceOnUse" color-interpolation-filters="sRGB">
<feFlood flood-opacity="0" result="BackgroundImageFix"/>
<feColorMatrix in="SourceAlpha" type="matrix" values="0 0 0 0 0 0 0 0 0 0 0 0 0 0 0 0 0 0 127 0" result="hardAlpha"/>
<feOffset dy="4"/>
<feGaussianBlur stdDeviation="2"/>
<feComposite in2="hardAlpha" operator="out"/>
<feColorMatrix type="matrix" values="0 0 0 0 0 0 0 0 0 0 0 0 0 0 0 0 0 0 0.25 0"/>
<feBlend mode="normal" in2="BackgroundImageFix" result="effect1_dropShadow_75_280"/>
<feBlend mode="normal" in="SourceGraphic" in2="effect1_dropShadow_75_280" result="shape"/>
</filter>
</defs>
</svg>
